<svg width="22.006104" height="22.027344" viewBox="0 0 22.0061 22.0273" fill="none" xmlns="http://www.w3.org/2000/svg" xmlns:xlink="http://www.w3.org/1999/xlink">
	<desc>
			Created with Pixso.
	</desc>
	<defs/>
	<path id="Vector" d="M21 10.09L21 11.01C21 13.17 20.3 15.27 19.01 17C17.72 18.72 15.9 19.99 13.83 20.6C11.76 21.21 9.55 21.14 7.53 20.39C5.51 19.64 3.78 18.26 2.61 16.45C1.43 14.64 0.88 12.5 1.02 10.35C1.16 8.2 1.99 6.15 3.4 4.51C4.8 2.87 6.69 1.73 8.79 1.25C10.9 0.78 13.1 1 15.07 1.87" stroke="#1F37FF" stroke-opacity="1.000000" stroke-width="2.000000" stroke-linejoin="round" stroke-linecap="round"/>
	<path id="Vector" d="M21 3.01L11 13.02L8 10.02" stroke="#1F37FF" stroke-opacity="1.000000" stroke-width="2.000000" stroke-linejoin="round" stroke-linecap="round"/>
</svg>
