<svg width="125.000000" height="125.000000" viewBox="0 0 125 125" fill="none" xmlns="http://www.w3.org/2000/svg" xmlns:xlink="http://www.w3.org/1999/xlink">
	<desc>
			Created with Pixso.
	</desc>
	<defs/>
	<path id="Rectangle 28" d="M0 62.5C0 27.98 27.98 0 62.5 0C97.01 0 125 27.98 125 62.5C125 97.01 97.01 125 62.5 125L0 125L0 62.5Z" fill="#1F37FF" fill-opacity="1.000000" fill-rule="evenodd"/>
	<path id="Rectangle 28" d="M0 125L0 62.5C0 27.98 27.98 0 62.5 0C97.01 0 125 27.98 125 62.5C125 97.01 97.01 125 62.5 125L0 125ZM1 124L1 62.5C1 28.53 28.53 1 62.5 1C96.46 1 124 28.53 124 62.5C124 96.46 96.46 124 62.5 124L1 124Z" fill="#000000" fill-opacity="0" fill-rule="evenodd"/>
	<path id="Vector" d="M67.81 68.29L82.46 68.29L72.69 87.82L87.34 87.82L97.11 68.29L97.11 39L67.81 39L67.81 68.29Z" fill="#FFFFFF" fill-opacity="1.000000" fill-rule="nonzero"/>
	<path id="Vector" d="" fill="#000000" fill-opacity="0" fill-rule="evenodd"/>
	<path id="Vector" d="M29 39L29 68.29L43.64 68.29L33.88 87.82L48.52 87.82L58.29 68.29L58.29 39L29 39Z" fill="#FFFFFF" fill-opacity="1.000000" fill-rule="nonzero"/>
	<path id="Vector" d="" fill="#000000" fill-opacity="0" fill-rule="evenodd"/>
</svg>
