<svg width="46.626465" height="56.933594" viewBox="0 0 46.6265 56.9336" fill="none" xmlns="http://www.w3.org/2000/svg" xmlns:xlink="http://www.w3.org/1999/xlink">
	<desc>
			Created with Pixso.
	</desc>
	<defs/>
	<path id="Vector" d="M17.05 10.47C17.98 10.47 18.72 9.72 18.72 8.8L18.72 1.65C18.63 -0.56 15.47 -0.56 15.39 1.65L15.39 8.8C15.39 9.72 16.13 10.47 17.05 10.47Z" fill="#1F37FF" fill-opacity="1.000000" fill-rule="nonzero"/>
	<path id="Vector" d="M8.73 9.98C9.38 10.63 10.43 10.63 11.09 9.98C11.74 9.33 11.74 8.27 11.09 7.62L9.3 5.84C8.65 5.18 7.59 5.18 6.94 5.84C6.29 6.49 6.29 7.54 6.94 8.2L8.73 9.98Z" fill="#1F37FF" fill-opacity="1.000000" fill-rule="nonzero"/>
	<path id="Vector" d="M25.38 9.98L27.17 8.2C27.82 7.54 27.82 6.49 27.17 5.84C26.52 5.18 25.46 5.18 24.81 5.84L23.02 7.62C22.37 8.27 22.37 9.33 23.02 9.98C23.67 10.63 24.73 10.63 25.38 9.98Z" fill="#1F37FF" fill-opacity="1.000000" fill-rule="nonzero"/>
	<path id="Vector" d="M37.19 25.47C38.15 24.51 38.15 22.97 37.19 22.02C36.24 21.07 34.7 21.06 33.74 22.02L27.93 27.83C26.98 28.78 26.98 30.33 27.93 31.28C28.89 32.23 30.43 32.23 31.38 31.28L37.19 25.47C37.19 25.47 37.19 25.47 37.19 25.47Z" fill="#1F37FF" fill-opacity="1.000000" fill-rule="nonzero"/>
	<path id="Vector" d="M37.19 37.09L41.55 32.73L41.55 32.73C42.5 31.78 42.5 30.23 41.55 29.28C40.6 28.33 39.05 28.33 38.1 29.28L33.74 33.64C32.79 34.59 32.79 36.13 33.74 37.09C34.7 38.04 36.24 38.04 37.19 37.09Z" fill="#1F37FF" fill-opacity="1.000000" fill-rule="nonzero"/>
	<path id="Vector" d="M45.91 36.54C44.96 35.6 43.42 35.58 42.46 36.54L39.55 39.45C38.6 40.4 38.6 41.94 39.55 42.89C40.52 43.86 42.06 43.83 43 42.9L45.91 39.99L45.91 39.99C46.85 39.05 46.87 37.5 45.91 36.54Z" fill="#1F37FF" fill-opacity="1.000000" fill-rule="nonzero"/>
	<path id="Vector" d="M35.5 41.17C35.5 41.16 35.5 41.15 35.5 41.14C33.95 41.15 32.48 40.54 31.38 39.45C30.25 38.31 29.69 36.81 29.7 35.32C28.2 35.33 26.71 34.77 25.58 33.64C23.32 31.38 23.32 27.72 25.58 25.47L41.55 9.49C42.46 8.58 42.54 7.03 41.56 6.05C40.74 5.23 39.19 4.95 38.1 6.04L17.5 26.65L17.77 26.92C22.42 31.57 22.42 39.15 17.77 43.8C17.12 44.45 16.06 44.45 15.41 43.8C14.76 43.15 14.76 42.09 15.41 41.44C18.76 38.09 18.76 32.63 15.41 29.28C15.41 29.28 13.96 27.83 13.96 27.82C13.74 27.61 13.58 27.33 13.51 27.02L11.6 18.75C11.02 16.2 8.32 14.73 5.85 15.63C5.19 15.87 4.75 16.5 4.75 17.2L4.77 40.81L0.48 45.09C-0.17 45.75 -0.17 46.8 0.48 47.45L9.47 56.44C9.78 56.75 10.21 56.93 10.65 56.93L27.11 56.93C28.31 56.93 29.44 56.46 30.28 55.61L39.3 46.6C38.52 46.31 37.8 45.86 37.19 45.25C36.1 44.16 35.5 42.71 35.5 41.17Z" fill="#1F37FF" fill-opacity="1.000000" fill-rule="nonzero"/>
</svg>
