<svg width="201.783936" height="109.500000" viewBox="0 0 201.784 109.5" fill="none" xmlns="http://www.w3.org/2000/svg" xmlns:xlink="http://www.w3.org/1999/xlink">
	<desc>
			Created with Pixso.
	</desc>
	<defs/>
	<path id="Polygon 1" d="M49.41 53.62L7.72 8.38C4.77 5.18 7.04 0 11.4 0L190.37 0C194.73 0 197 5.18 194.05 8.38L152.37 53.62C124.64 83.71 77.13 83.71 49.41 53.62Z" fill="#1F37FF" fill-opacity="1.000000" fill-rule="nonzero"/>
	<path id="Vector" d="M99.33 44.41C97.79 42.69 96.94 40.47 96.94 38.16C96.94 32.98 101.15 28.77 106.32 28.77C108.49 28.77 110.55 29.52 112.19 30.84C113.83 29.52 115.89 28.77 118.06 28.77C118.22 28.77 118.38 28.78 118.54 28.79C118.42 22.61 113.36 17.63 107.15 17.63C103.69 17.63 100.45 19.21 98.3 21.85C96.16 19.21 92.92 17.63 89.45 17.63C83.17 17.63 78.06 22.74 78.06 29.02C78.06 31.83 79.09 34.53 80.96 36.62C82.83 38.7 98.3 53.36 98.3 53.36C98.3 53.36 101.04 50.86 103.47 48.53C101.54 46.66 99.83 44.97 99.33 44.41Z" fill="#FFFFFF" fill-opacity="1.000000" fill-rule="nonzero"/>
	<path id="Vector" d="M112.19 53.12C112.19 53.12 121.8 43.95 123.02 42.59C124.07 41.41 124.71 39.86 124.71 38.16C124.71 34.48 121.73 31.51 118.06 31.51C115.55 31.51 113.36 32.9 112.23 34.96L112.15 34.96C111.02 32.9 108.83 31.51 106.32 31.51C102.65 31.51 99.67 34.48 99.67 38.16C99.67 39.86 100.31 41.41 101.36 42.59C102.58 43.95 112.19 53.12 112.19 53.12Z" fill="#FFFFFF" fill-opacity="1.000000" fill-rule="nonzero"/>
</svg>
