<svg width="57.000000" height="49.846680" viewBox="0 0 57 49.8467" fill="none" xmlns="http://www.w3.org/2000/svg" xmlns:xlink="http://www.w3.org/1999/xlink">
	<desc>
			Created with Pixso.
	</desc>
	<defs/>
	<path id="Vector" d="M30.16 1.66C30.16 0.74 29.42 0 28.5 0C27.57 0 26.83 0.74 26.83 1.66L26.83 8.82C26.83 9.74 27.57 10.49 28.5 10.49C29.42 10.49 30.16 9.74 30.16 8.82L30.16 1.66Z" fill="#1F37FF" fill-opacity="1.000000" fill-rule="nonzero"/>
	<path id="Vector" d="M20.16 11.79C20.49 12.12 20.91 12.28 21.34 12.28C21.77 12.28 22.19 12.12 22.52 11.79C23.17 11.14 23.17 10.08 22.52 9.43L18.94 5.85C18.29 5.2 17.23 5.2 16.58 5.85C15.93 6.5 15.93 7.56 16.58 8.21L20.16 11.79Z" fill="#1F37FF" fill-opacity="1.000000" fill-rule="nonzero"/>
	<path id="Vector" d="M35.65 12.28C36.08 12.28 36.5 12.12 36.83 11.79L40.41 8.21C41.06 7.56 41.06 6.5 40.41 5.85C39.76 5.2 38.7 5.2 38.05 5.85L34.47 9.43C33.82 10.08 33.82 11.14 34.47 11.79C34.8 12.12 35.22 12.28 35.65 12.28Z" fill="#1F37FF" fill-opacity="1.000000" fill-rule="nonzero"/>
	<path id="Vector" d="M23.66 16.13C23.65 16.14 23.63 16.16 23.61 16.17L16.39 22.36C15.73 22.93 14.87 23.25 13.99 23.25L8.82 23.25C3.94 23.25 0 27.19 0 32.07L0 48.17C0 49.09 0.74 49.84 1.66 49.84L15.97 49.84C16.9 49.84 17.64 49.09 17.64 48.17L17.64 32.84L26.14 25.56C26.58 25.19 26.83 24.64 26.83 24.07L26.83 17.66C26.83 16.03 24.93 15.1 23.66 16.13Z" fill="#1F37FF" fill-opacity="1.000000" fill-rule="nonzero"/>
	<path id="Vector" d="M48.17 23.25L43 23.25C42.12 23.25 41.26 22.93 40.6 22.36L33.38 16.17C33.36 16.16 33.34 16.14 33.33 16.13C32.06 15.1 30.16 16.03 30.16 17.66L30.16 24.07C30.16 24.64 30.41 25.18 30.85 25.56L39.35 32.84L39.35 48.17C39.35 49.09 40.09 49.84 41.02 49.84L55.33 49.84C56.25 49.84 57 49.09 57 48.17L57 32.07C57 27.19 53.05 23.25 48.17 23.25Z" fill="#1F37FF" fill-opacity="1.000000" fill-rule="nonzero"/>
	<path id="Vector" d="M15.86 16.21C15.86 12.33 12.7 9.18 8.82 9.18C4.94 9.18 1.78 12.33 1.78 16.21C1.78 20.09 4.94 23.25 8.82 23.25C12.7 23.25 15.86 20.09 15.86 16.21Z" fill="#1F37FF" fill-opacity="1.000000" fill-rule="nonzero"/>
	<path id="Vector" d="M55.21 16.21C55.21 12.33 52.05 9.18 48.17 9.18C44.29 9.18 41.13 12.33 41.13 16.21C41.13 20.09 44.29 23.25 48.17 23.25C52.05 23.25 55.21 20.09 55.21 16.21Z" fill="#1F37FF" fill-opacity="1.000000" fill-rule="nonzero"/>
</svg>
