<svg width="17.273926" height="17.277344" viewBox="0 0 17.2739 17.2773" fill="none" xmlns="http://www.w3.org/2000/svg" xmlns:xlink="http://www.w3.org/1999/xlink">
	<desc>
			Created with Pixso.
	</desc>
	<defs/>
	<path id="Vector" d="M17.23 5.08C17.18 4.16 17.04 3.53 16.82 2.98C16.6 2.4 16.27 1.88 15.82 1.45C15.39 1.01 14.87 0.67 14.3 0.45C13.75 0.24 13.12 0.09 12.2 0.05C11.27 0 10.98 0 8.64 0C6.29 0 6 0 5.07 0.05C4.16 0.09 3.53 0.23 2.98 0.45C2.4 0.67 1.88 1 1.45 1.45C1.01 1.88 0.67 2.4 0.45 2.98C0.24 3.53 0.09 4.15 0.05 5.07C0.01 6 0 6.29 0 8.64C0 10.98 0.01 11.27 0.05 12.2C0.09 13.11 0.23 13.75 0.45 14.29C0.67 14.87 1.01 15.39 1.45 15.82C1.88 16.26 2.4 16.6 2.98 16.82C3.53 17.03 4.15 17.18 5.07 17.22C5.99 17.26 6.29 17.27 8.63 17.27C10.98 17.27 11.27 17.26 12.19 17.22C13.11 17.18 13.74 17.03 14.29 16.82C15.45 16.37 16.37 15.45 16.82 14.29C17.03 13.74 17.18 13.11 17.22 12.2C17.26 11.27 17.27 10.98 17.27 8.64C17.27 6.29 17.27 6 17.23 5.08ZM15.67 12.13C15.63 12.97 15.49 13.43 15.37 13.73C15.08 14.48 14.48 15.08 13.73 15.37C13.43 15.49 12.97 15.63 12.13 15.67C11.22 15.71 10.94 15.72 8.64 15.72C6.33 15.72 6.06 15.71 5.15 15.67C4.31 15.63 3.85 15.49 3.55 15.37C3.17 15.23 2.83 15.01 2.55 14.73C2.27 14.45 2.05 14.11 1.91 13.74C1.79 13.43 1.65 12.97 1.61 12.13C1.57 11.22 1.56 10.95 1.56 8.64C1.56 6.34 1.57 6.06 1.61 5.15C1.65 4.31 1.79 3.85 1.91 3.55C2.05 3.17 2.27 2.83 2.56 2.56C2.84 2.27 3.17 2.05 3.55 1.91C3.85 1.79 4.31 1.65 5.15 1.62C6.06 1.58 6.34 1.56 8.64 1.56C10.95 1.56 11.22 1.58 12.13 1.62C12.98 1.65 13.43 1.79 13.74 1.91C14.11 2.05 14.45 2.27 14.73 2.56C15.01 2.84 15.23 3.17 15.37 3.55C15.49 3.85 15.63 4.31 15.67 5.15C15.71 6.06 15.72 6.34 15.72 8.64C15.72 10.95 15.71 11.22 15.67 12.13Z" fill="#FFFFFF" fill-opacity="1.000000" fill-rule="nonzero"/>
	<path id="Vector" d="M8.64 4.2C6.19 4.2 4.2 6.19 4.2 8.64C4.2 11.09 6.19 13.08 8.64 13.08C11.09 13.08 13.07 11.09 13.07 8.64C13.07 6.19 11.09 4.2 8.64 4.2ZM8.64 11.52C7.05 11.52 5.76 10.23 5.76 8.64C5.76 7.05 7.05 5.76 8.64 5.76C10.23 5.76 11.51 7.05 11.51 8.64C11.51 10.23 10.23 11.52 8.64 11.52Z" fill="#FFFFFF" fill-opacity="1.000000" fill-rule="nonzero"/>
	<path id="Vector" d="M14.29 4.02C14.29 4.59 13.82 5.06 13.25 5.06C12.68 5.06 12.21 4.59 12.21 4.02C12.21 3.45 12.68 2.99 13.25 2.99C13.82 2.99 14.29 3.45 14.29 4.02Z" fill="#FFFFFF" fill-opacity="1.000000" fill-rule="nonzero"/>
</svg>
