<svg width="54.701172" height="57.000000" viewBox="0 0 54.7012 57" fill="none" xmlns="http://www.w3.org/2000/svg" xmlns:xlink="http://www.w3.org/1999/xlink">
	<desc>
			Created with Pixso.
	</desc>
	<defs/>
	<path id="XMLID 49" d="M33.84 49.81L33.84 51.47C33.84 52.8 32.87 53.9 31.6 54.09L31.19 55.6C30.97 56.42 30.23 57 29.37 57L25.3 57C24.45 57 23.71 56.42 23.49 55.6L23.09 54.09C21.81 53.89 20.84 52.8 20.84 51.46L20.84 49.79C20.84 48.9 21.55 48.19 22.44 48.19L32.24 48.19C33.13 48.2 33.84 48.91 33.84 49.81ZM41.38 27.36C41.38 31.15 39.88 34.58 37.44 37.1C35.59 39.03 34.39 41.48 34 44.09C33.82 45.22 32.85 46.05 31.7 46.05L22.98 46.05C21.84 46.05 20.86 45.23 20.7 44.11C20.29 41.49 19.08 39 17.22 37.09C14.83 34.61 13.34 31.23 13.31 27.51C13.22 19.7 19.44 13.38 27.25 13.32C35.05 13.26 41.38 19.57 41.38 27.36ZM28.93 18.85C28.93 17.99 28.23 17.27 27.35 17.27C21.76 17.27 17.21 21.81 17.21 27.4C17.21 28.27 17.92 28.99 18.8 28.99C19.66 28.99 20.38 28.28 20.38 27.4C20.38 23.56 23.51 20.44 27.35 20.44C28.23 20.44 28.93 19.73 28.93 18.85ZM27.35 8.71C28.21 8.71 28.93 8.01 28.93 7.13L28.93 1.58C28.93 0.71 28.23 0 27.35 0C26.47 0 25.76 0.7 25.76 1.58L25.76 7.13C25.76 8.01 26.48 8.71 27.35 8.71ZM8.71 27.35C8.71 26.48 8.01 25.76 7.13 25.76L1.58 25.76C0.71 25.76 0 26.47 0 27.35C0 28.21 0.7 28.93 1.58 28.93L7.13 28.93C8.01 28.93 8.71 28.23 8.71 27.35ZM53.11 25.76L47.57 25.76C46.7 25.76 45.98 26.47 45.98 27.35C45.98 28.21 46.69 28.93 47.57 28.93L53.11 28.93C53.98 28.93 54.7 28.23 54.7 27.35C54.7 26.48 53.99 25.76 53.11 25.76ZM11.93 40.53L8.01 44.46C7.38 45.08 7.38 46.08 8.01 46.7C8.31 47 8.72 47.16 9.12 47.16C9.52 47.16 9.93 47 10.23 46.7L14.16 42.77C14.78 42.15 14.78 41.15 14.16 40.53C13.55 39.91 12.54 39.91 11.93 40.53ZM41.64 14.63C42.04 14.63 42.45 14.48 42.76 14.17L46.69 10.25C47.31 9.62 47.31 8.63 46.69 8.01C46.06 7.38 45.07 7.38 44.45 8.01L40.52 11.93C39.89 12.56 39.89 13.55 40.52 14.17C40.83 14.48 41.23 14.63 41.64 14.63ZM11.93 14.16C12.24 14.47 12.65 14.62 13.05 14.62C13.45 14.62 13.86 14.47 14.16 14.16C14.78 13.54 14.78 12.54 14.16 11.92L10.23 7.99C9.61 7.37 8.62 7.37 7.99 7.99C7.37 8.62 7.37 9.61 7.99 10.23L11.93 14.16ZM42.76 40.53C42.14 39.91 41.14 39.91 40.52 40.53C39.89 41.15 39.89 42.15 40.52 42.77L44.45 46.7C44.75 47 45.16 47.16 45.56 47.16C45.96 47.16 46.37 47 46.67 46.7C47.3 46.08 47.3 45.08 46.67 44.46L42.76 40.53Z" fill="#FFFFFF" fill-opacity="1.000000" fill-rule="nonzero"/>
</svg>
