<svg width="57.011475" height="57.000977" viewBox="0 0 57.0115 57.001" fill="none" xmlns="http://www.w3.org/2000/svg" xmlns:xlink="http://www.w3.org/1999/xlink">
	<desc>
			Created with Pixso.
	</desc>
	<defs/>
	<path id="Vector" d="M28.5 16.37C25.03 16.37 22.2 19.2 22.2 22.67C22.2 26.15 25.03 28.97 28.5 28.97C31.97 28.97 34.8 26.15 34.8 22.67C34.8 19.2 31.97 16.37 28.5 16.37Z" fill="#1F37FF" fill-opacity="1.000000" fill-rule="nonzero"/>
	<path id="Vector" d="M57.01 25.33C57.01 23.79 55.85 22.48 54.31 22.3L51.07 21.93C50.61 20.28 49.96 18.66 49.12 17.12L51.11 14.6C52.07 13.4 51.97 11.66 50.88 10.55L46.61 6.28C46.03 5.71 45.27 5.39 44.46 5.39C43.77 5.39 43.1 5.63 42.56 6.05L40.13 7.98C38.53 7.07 36.83 6.36 35.04 5.85L34.68 2.69C34.5 1.16 33.19 0 31.65 0L25.59 0C24.05 0 22.75 1.16 22.57 2.69L22.2 5.85C20.37 6.37 18.62 7.11 16.97 8.06L14.44 6.05C13.91 5.63 13.24 5.39 12.55 5.39C11.74 5.39 10.97 5.71 10.39 6.28L6.11 10.56C5.02 11.66 4.92 13.4 5.88 14.61L8.02 17.31C7.19 18.86 6.55 20.49 6.1 22.17L2.69 22.56C1.16 22.74 0 24.04 0 25.58L0 31.64C0 33.18 1.16 34.49 2.7 34.67L6.32 35.09C6.78 36.62 7.41 38.09 8.17 39.48L5.88 42.37C4.93 43.57 5.02 45.31 6.11 46.42L10.39 50.7C10.97 51.27 11.73 51.59 12.54 51.59C13.23 51.59 13.9 51.35 14.44 50.93L17.3 48.66C18.76 49.47 20.3 50.13 21.9 50.61L22.32 54.3C22.51 55.83 23.81 57 25.35 57L31.41 57C32.95 57 34.25 55.83 34.43 54.29L34.84 50.76C36.56 50.28 38.22 49.61 39.8 48.75L42.56 50.94C43.1 51.36 43.77 51.6 44.45 51.6C45.26 51.6 46.03 51.28 46.61 50.71L50.89 46.43C51.98 45.33 52.08 43.59 51.12 42.38L48.98 39.66C49.85 38.1 50.54 36.46 51.02 34.79L54.31 34.41C55.85 34.23 57.01 32.93 57.01 31.39L57.01 25.33ZM22.04 38.87L22.04 43.31C21.18 42.94 20.35 42.48 19.57 41.96L22.04 38.87ZM34.96 38.87L37.43 41.96C36.65 42.48 35.82 42.94 34.96 43.31L34.96 38.87ZM35.33 30.89C34.83 30.17 34.02 29.75 33.15 29.75C33.12 29.75 23.88 29.75 23.85 29.75C22.98 29.75 22.17 30.17 21.68 30.88L15.78 38.47C13.62 35.72 12.33 32.25 12.33 28.5C12.33 19.58 19.59 12.33 28.5 12.33C37.41 12.33 44.67 19.58 44.67 28.5C44.67 32.25 43.38 35.72 41.22 38.47L35.33 30.89Z" fill="#1F37FF" fill-opacity="1.000000" fill-rule="nonzero"/>
</svg>
