<svg width="17.193115" height="13.969727" viewBox="0 0 17.1931 13.9697" fill="none" xmlns="http://www.w3.org/2000/svg" xmlns:xlink="http://www.w3.org/1999/xlink">
	<desc>
			Created with Pixso.
	</desc>
	<defs/>
	<path id="Vector" d="M17.19 1.65C16.55 1.93 15.87 2.12 15.16 2.2C15.89 1.77 16.45 1.08 16.71 0.26C16.03 0.66 15.27 0.95 14.47 1.11C13.83 0.42 12.9 0 11.9 0C9.95 0 8.38 1.58 8.38 3.52C8.38 3.8 8.4 4.07 8.46 4.32C5.53 4.18 2.93 2.78 1.19 0.64C0.89 1.16 0.71 1.77 0.71 2.42C0.71 3.64 1.34 4.72 2.28 5.35C1.71 5.34 1.15 5.17 0.68 4.91C0.68 4.92 0.68 4.94 0.68 4.95C0.68 6.67 1.9 8.09 3.51 8.42C3.22 8.5 2.91 8.53 2.58 8.53C2.36 8.53 2.13 8.52 1.92 8.47C2.37 9.87 3.67 10.89 5.21 10.93C4.01 11.87 2.49 12.43 0.84 12.43C0.55 12.43 0.27 12.42 0 12.38C1.56 13.39 3.41 13.96 5.4 13.96C11.89 13.96 15.43 8.59 15.43 3.93C15.43 3.78 15.43 3.63 15.42 3.48C16.12 2.98 16.71 2.36 17.19 1.65Z" fill="#FFFFFF" fill-opacity="1.000000" fill-rule="nonzero"/>
</svg>
