<svg width="18.687256" height="13.503906" viewBox="0 0 18.6873 13.5039" fill="none" xmlns="http://www.w3.org/2000/svg" xmlns:xlink="http://www.w3.org/1999/xlink">
	<desc>
			Created with Pixso.
	</desc>
	<defs/>
	<path id="Vector" d="M9.34 13.5C9.34 13.5 9.33 13.5 9.33 13.5C8.77 13.5 3.78 13.45 2.37 13.07C1.38 12.8 0.61 12.02 0.34 11.04C-0.03 9.65 -0.01 6.98 0 6.77C-0.01 6.55 -0.03 3.86 0.34 2.46C0.34 2.46 0.34 2.46 0.34 2.46C0.6 1.48 1.4 0.68 2.37 0.41C2.37 0.41 2.37 0.41 2.38 0.41C3.77 0.04 8.77 0 9.33 0L9.34 0C9.91 0 14.91 0.04 16.31 0.43C17.29 0.69 18.07 1.47 18.34 2.45C18.72 3.85 18.68 6.55 18.68 6.78C18.68 7.01 18.7 9.65 18.34 11.05C18.34 11.05 18.34 11.05 18.34 11.05C18.07 12.04 17.29 12.82 16.3 13.08C16.3 13.08 16.3 13.08 16.3 13.08C14.9 13.45 9.91 13.5 9.34 13.5C9.34 13.5 9.34 13.5 9.34 13.5ZM1.75 2.84C1.43 4.07 1.46 6.73 1.46 6.76L1.46 6.78C1.45 7.51 1.48 9.65 1.75 10.66C1.88 11.14 2.26 11.53 2.75 11.66C3.79 11.94 7.85 12.03 9.34 12.04C10.83 12.03 14.89 11.94 15.93 11.67C16.41 11.54 16.79 11.16 16.93 10.67C17.2 9.65 17.23 7.52 17.22 6.79C17.22 6.78 17.22 6.77 17.22 6.77C17.23 6.02 17.21 3.86 16.93 2.84C16.93 2.84 16.93 2.84 16.93 2.84C16.8 2.35 16.41 1.97 15.92 1.84C14.89 1.55 10.83 1.47 9.34 1.45C7.85 1.47 3.79 1.55 2.75 1.82C2.27 1.95 1.88 2.35 1.75 2.84ZM17.63 10.86L17.63 10.86L17.63 10.86ZM7.48 9.7L7.48 3.79L12.59 6.75L7.48 9.7Z" fill="#FFFFFF" fill-opacity="1.000000" fill-rule="nonzero"/>
</svg>
